PathFileType	4	(X/Y/Z)	C:\Users\chris\Documents\GitHub\baseballds\vids\pitch5_Sports2D\pitch5_Sports2D_m_person04.trc
DataRate	CameraRate	NumFrames	NumMarkers	Units	OrigDataRate	OrigDataStartFrame	OrigNumFrames
30	30	11	22	m	30	93	149
Frame#	Time	Hip			RHip			RKnee			RAnkle			RBigToe			RSmallToe			RHeel			LHip			LKnee			LAnkle			LBigToe			LSmallToe			LHeel			Neck			Head			Nose			RShoulder			RElbow			RWrist			LShoulder			LElbow			LWrist		
		X1	Y1	Z1	X2	Y2	Z2	X3	Y3	Z3	X4	Y4	Z4	X5	Y5	Z5	X6	Y6	Z6	X7	Y7	Z7	X8	Y8	Z8	X9	Y9	Z9	X10	Y10	Z10	X11	Y11	Z11	X12	Y12	Z12	X13	Y13	Z13	X14	Y14	Z14	X15	Y15	Z15	X16	Y16	Z16	X17	Y17	Z17	X18	Y18	Z18	X19	Y19	Z19	X20	Y20	Z20	X21	Y21	Z21	X22	Y22	Z22
93	3.1	2.6899664679808315	1.2790977787043016	0.0	2.682484847622527	1.2766126477153996	0.0	2.681621634349339	1.2533247703572428	0.0	2.680036425464046	1.2310511628338796	0.0	2.680202073965436	1.2285568068231953	0.0	2.6752867423083937	1.2280322630744651	0.0	2.680504624105678	1.2304902505834905	0.0	2.6975902624328865	1.2768157618114218	0.0	2.696514085081755	1.2531205043058782	0.0	2.6956645906791903	1.2309077469399379	0.0	2.6942114407330804	1.22767088480158	0.0	2.697826706970078	1.2306293593422981	0.0	2.6950385012936957	1.2315663632711829	0.0	2.6886406631657307	1.3188126806827603	0.0	2.6869120220651417	1.3383517743059163	0.0	2.687739307285031	1.327308966648675	0.0	2.6779398331223017	1.3142823313528738	0.0	2.6734293854864646	1.2984622225912177	0.0	2.673672107397828	1.2815220979243787	0.0	2.700197611911635	1.3155825428846277	0.0	2.706893512043213	1.2995146329817355	0.0	2.707325551913136	1.2816906864575086	0.0
94	3.1333333333333333	2.6898022387813043	1.278681400019678	0.0	2.682375093740196	1.2762917885843625	0.0	2.681196808273064	1.2524042785540679	0.0	2.680483171969764	1.2299168585682314	0.0	2.679664273076168	1.227029377194692	0.0	2.6754508391842338	1.226590889795402	0.0	2.680887538288369	1.2299281188925535	0.0	2.6973952300660833	1.2764142264083578	0.0	2.69649210469827	1.251905671021134	0.0	2.695312237662191	1.229672749730229	0.0	2.6948489931059374	1.2265876393707125	0.0	2.698468389774238	1.228277723809555	0.0	2.69475349525171	1.230734804727749	0.0	2.6887025015759702	1.3185966339589397	0.0	2.687484301103276	1.3383559072040792	0.0	2.6882784075084163	1.3268983542135684	0.0	2.677784685826417	1.314132047312359	0.0	2.6726383684463717	1.2982653763490266	0.0	2.671718267072546	1.2799789286081313	0.0	2.7003969432798733	1.3153581507630228	0.0	2.707054891546174	1.2990089459855565	0.0	2.707225107243715	1.2811465733651075	0.0
95	3.1666666666666665	2.689390015426044	1.2786285227396779	0.0	2.68189878697328	1.2759622130941808	0.0	2.680440952713314	1.2516807643743508	0.0	2.6797866734104017	1.2292577487953726	0.0	2.6781812346603227	1.226819737227003	0.0	2.6748328532484695	1.2265925674294684	0.0	2.6804507016466266	1.2295444456248719	0.0	2.6971600168058023	1.2759242604857084	0.0	2.696411180147376	1.2507667785188483	0.0	2.6946709637356845	1.2288531192881182	0.0	2.693392087001717	1.2263475298738407	0.0	2.6966439885863043	1.226555304067127	0.0	2.6941883644344453	1.2307352244121486	0.0	2.688863243956468	1.318398593209909	0.0	2.6879315682233007	1.3382529329418964	0.0	2.6884867909628687	1.326707398867854	0.0	2.677709032122913	1.3140655119398004	0.0	2.6722192225891916	1.2978975219739834	0.0	2.6689991084586047	1.2788724012339334	0.0	2.7007526288317707	1.3152285580259944	0.0	2.7070282688065315	1.2979760399701405	0.0	2.707409440117028	1.2804849891051142	0.0
96	3.2	2.689088693620951	1.2787561933301974	0.0	2.6813828203996035	1.2757338337155109	0.0	2.6798824345804824	1.2512513800349556	0.0	2.678688483700254	1.2289873805558624	0.0	2.6766796877733587	1.2273835049483428	0.0	2.6738143357617137	1.2274482099648767	0.0	2.679735727521249	1.2293536925303576	0.0	2.6970408880599894	1.2755684852970546	0.0	2.6962288214003602	1.2499939294282072	0.0	2.694036851945031	1.2284072767786849	0.0	2.6899996072242023	1.2265791850874923	0.0	2.6933336045492933	1.2259075406107953	0.0	2.6934950004580402	1.2308563552757341	0.0	2.689023525901027	1.3182959215069237	0.0	2.6879989265436808	1.3380901551809807	0.0	2.6882566087693704	1.3267439998001953	0.0	2.6776376466088476	1.314191669676103	0.0	2.6722801335170283	1.297858241874785	0.0	2.6681663770389745	1.2791940621101905	0.0	2.700997987624244	1.3152604703124178	0.0	2.7068732580035704	1.2973514929016485	0.0	2.7076448525234036	1.2800339508884615	0.0
97	3.2333333333333334	2.6886927783311854	1.2785696107968378	0.0	2.6807964504170863	1.2753801593737353	0.0	2.67947487469098	1.2510598680979303	0.0	2.678032480266897	1.2288715539148483	0.0	2.6755103095015738	1.2277838368311655	0.0	2.672959290852834	1.228162386050311	0.0	2.679326251669203	1.2294945361420095	0.0	2.696620760882028	1.2752634639438922	0.0	2.695735292477465	1.2497703483890972	0.0	2.69344537077588	1.228243853079161	0.0	2.6860225918267737	1.2268196088431496	0.0	2.6904950340143268	1.2264082246175843	0.0	2.6926329706146337	1.2306544697211927	0.0	2.6888480494772145	1.318507888715682	0.0	2.6878076923544953	1.3380922965086506	0.0	2.687824135764496	1.3270759846548559	0.0	2.6773263321034184	1.3144357987397206	0.0	2.672183375217587	1.2980815523931262	0.0	2.6716688228853873	1.280232346633425	0.0	2.7007416114165963	1.3153150610400564	0.0	2.706360959811573	1.2974007847154219	0.0	2.707440439807855	1.2798833992473089	0.0
98	3.2666666666666666	2.6880242166386994	1.2781386848303755	0.0	2.680136246215454	1.2749472923814675	0.0	2.6789551965991483	1.2511702668786886	0.0	2.677822197515264	1.2290933596956866	0.0	2.6748742529272227	1.2280465673640206	0.0	2.6723806044826124	1.2286489771732303	0.0	2.679023395882081	1.2299954899020646	0.0	2.695645321120246	1.2750272344790967	0.0	2.6948331971624646	1.2501871258752832	0.0	2.6927481035989516	1.2286425005581585	0.0	2.6837824628742184	1.2272445963404839	0.0	2.6894505398583837	1.2278111795923923	0.0	2.6915228862676535	1.230601244621512	0.0	2.6882650854803014	1.3189428555071026	0.0	2.687498670186589	1.338434579720336	0.0	2.687486326618158	1.3277183018990009	0.0	2.6768499808191986	1.3144447951555915	0.0	2.671624201650602	1.2978305698675028	0.0	2.6790243133775906	1.2807188871427955	0.0	2.69993253516957	1.3151844101981627	0.0	2.7055340358394573	1.2975803739641842	0.0	2.706711269601223	1.279775080636337	0.0
99	3.3	2.6877494875969465	1.2779607091054999	0.0	2.6800171781412647	1.2748476057031006	0.0	2.6787508292673046	1.2515438278235582	0.0	2.6782208650516908	1.2296304696498872	0.0	2.67553736415716	1.2285408690386406	0.0	2.6723226266364684	1.2291477869610485	0.0	2.6790456983726445	1.2307478038565591	0.0	2.69496621877456	1.274997575925029	0.0	2.6941698312336295	1.2508108521991712	0.0	2.692379026580339	1.2293737204283157	0.0	2.685400477398203	1.2279034310327657	0.0	2.690462866127007	1.2294506980082145	0.0	2.690937624650102	1.2310324787868026	0.0	2.68803851194171	1.319032982251589	0.0	2.6875161016422653	1.338729488676729	0.0	2.687748125484771	1.3280524676701657	0.0	2.676792078400595	1.313982380607038	0.0	2.671249616800922	1.2970091095265137	0.0	2.683255510859856	1.2801451170382872	0.0	2.6994680322642646	1.3148066802315608	0.0	2.705177901198494	1.2974305818033374	0.0	2.706319372069305	1.2793768861496215	0.0
100	3.3333333333333335	2.689741068397964	1.2785048270589199	0.0	2.682200354064856	1.2754871332856605	0.0	2.6808311317353777	1.2525364123521343	0.0	2.6808852613153604	1.2308365048637189	0.0	2.6790632588935375	1.2298736273256585	0.0	2.67482697574946	1.2303843202293323	0.0	2.6814364979420047	1.232417097957468	0.0	2.6967268153048085	1.2754655876485426	0.0	2.69563251300729	1.2517270287892455	0.0	2.6940033103822114	1.2304684305838924	0.0	2.6910288255398593	1.2292052692364566	0.0	2.6932628587996645	1.2313118953098563	0.0	2.6926207151279784	1.2324313009774	0.0	2.690086472254339	1.3186271505449725	0.0	2.689659933820237	1.33822180401339	0.0	2.6901041570059263	1.327455698913535	0.0	2.678834655310168	1.3134992479414582	0.0	2.673102530575199	1.2966892156718535	0.0	2.6807722191936696	1.2794800186894126	0.0	2.7012869557711374	1.3144986888196397	0.0	2.706897845458899	1.2972992997073973	0.0	2.7080981599821454	1.2791471546903521	0.0
101	3.3666666666666667	2.694454457348768	1.2797367573153482	0.0	2.687099978000414	1.2768035007252796	0.0	2.6858797253263984	1.2545668747260699	0.0	2.686354552335441	1.233353052710041	0.0	2.6850735896988676	1.2323763998329802	0.0	2.6807651193505824	1.2330234451526403	0.0	2.6870528532313447	1.2354654676539494	0.0	2.7013887960044913	1.2765741020246522	0.0	2.6997794473691377	1.253553551296445	0.0	2.698132148986204	1.2325246950021926	0.0	2.6979674185629032	1.2317348953803018	0.0	2.6970107726542683	1.2337507492578421	0.0	2.696759796003279	1.234923671495086	0.0	2.6949405961034523	1.318362891723447	0.0	2.6947663516262095	1.3368090493722617	0.0	2.6950523165729345	1.3263378092262206	0.0	2.683672177934159	1.3136024755561728	0.0	2.6780167256088516	1.2974821495866986	0.0	2.6781886161301127	1.2801090454755801	0.0	2.70570498952478	1.3145696473832351	0.0	2.7109303263113733	1.2976416258892136	0.0	2.712327125455201	1.2798441354447156	0.0
102	3.4	2.692659275874838	1.279562539263969	0.0	2.685130300055842	1.2767867866195475	0.0	2.6839534817647155	1.2547092255077708	0.0	2.6844777002366262	1.2333559689786153	0.0	2.683105525054236	1.2316026040942956	0.0	2.679353029320402	1.2326186803507682	0.0	2.685569957213322	1.2352749574616118	0.0	2.6998138006583443	1.2764613484439749	0.0	2.6980378897527357	1.2536845273611714	0.0	2.696467292367043	1.232117244530336	0.0	2.6968708460900213	1.2314901391980366	0.0	2.6947825976983926	1.2329608084647472	0.0	2.6950978524541758	1.2342366893331311	0.0	2.69332874680445	1.3184417147217116	0.0	2.6935589436386804	1.3359038015919267	0.0	2.6933090159317152	1.3257174468634514	0.0	2.6818439590059313	1.3138706217771623	0.0	2.676297190634463	1.297750038960327	0.0	2.6729644048399233	1.2804767306878748	0.0	2.7039381880823363	1.3145308586121314	0.0	2.7091333383530807	1.2974826245250748	0.0	2.710768008098604	1.2797180189797788	0.0
103	3.433333333333333	2.6639195482917177	1.273485625583798	0.0	2.6548941548075278	1.2709002455309668	0.0	2.6528231754047815	1.2454183218855024	0.0	2.6524166182481936	1.2204967914262723	0.0	2.6510625187928794	1.2165863365643812	0.0	2.6467018408062835	1.2178614553227098	0.0	2.6537614720894136	1.2210765829981944	0.0	2.672145674139508	1.2706544679678546	0.0	2.6713963940638057	1.2448904859149001	0.0	2.6705203169177474	1.2195525548532258	0.0	2.6709656151621135	1.2181534086097947	0.0	2.6703125319928738	1.2192885787875396	0.0	2.669678660394878	1.2206917062529865	0.0	2.664196323066624	1.3180119383982332	0.0	2.6643749198283064	1.3380994681171714	0.0	2.663323412833576	1.3263277274478757	0.0	2.651019150151965	1.3128377104165625	0.0	2.6451778224288267	1.2942021945996856	0.0	2.6423600672997636	1.275327109170539	0.0	2.6767237377269257	1.3133304698740753	0.0	2.6835348329976307	1.2946231355580604	0.0	2.685681718036012	1.2740160290400362	0.0
